{"glyphs":{"0":{"ha":1190,"x_min":0,"x_max":992,"o":"m 794 198 l 992 198 l 992 1190 l 794 1190 l 794 1389 l 198 1389 l 198 1190 l 0 1190 l 0 198 l 198 198 l 198 0 l 794 0 l 794 198 m 397 198 l 397 1190 l 794 1190 l 794 198 l 397 198 "},"1":{"ha":794,"x_min":0,"x_max":595,"o":"m 198 1389 l 198 1190 l 0 1190 l 0 992 l 198 992 l 198 0 l 595 0 l 595 1389 l 198 1389 "},"2":{"ha":1190,"x_min":0,"x_max":992,"o":"m 595 794 l 198 794 l 198 595 l 0 595 l 0 0 l 992 0 l 992 397 l 794 397 l 794 198 l 397 198 l 397 595 l 794 595 l 794 794 l 992 794 l 992 1190 l 794 1190 l 794 1389 l 198 1389 l 198 1190 l 0 1190 l 0 992 l 397 992 l 397 1190 l 595 1190 l 595 794 "},"3":{"ha":1190,"x_min":0,"x_max":992,"o":"m 595 198 l 397 198 l 397 397 l 0 397 l 0 198 l 198 198 l 198 0 l 794 0 l 794 198 l 992 198 l 992 595 l 794 595 l 794 794 l 992 794 l 992 1190 l 794 1190 l 794 1389 l 198 1389 l 198 1190 l 0 1190 l 0 992 l 397 992 l 397 1190 l 595 1190 l 595 794 l 198 794 l 198 595 l 595 595 l 595 198 "},"4":{"ha":1190,"x_min":0,"x_max":992,"o":"m 992 0 l 992 1389 l 595 1389 l 595 794 l 397 794 l 397 1389 l 0 1389 l 0 794 l 198 794 l 198 595 l 595 595 l 595 0 l 992 0 "},"5":{"ha":1190,"x_min":0,"x_max":992,"o":"m 595 198 l 198 198 l 198 397 l 0 397 l 0 198 l 198 198 l 198 0 l 794 0 l 794 198 l 992 198 l 992 595 l 794 595 l 794 794 l 397 794 l 397 1190 l 992 1190 l 992 1389 l 0 1389 l 0 595 l 595 595 l 595 198 "},"6":{"ha":1190,"x_min":0,"x_max":992,"o":"m 794 595 l 794 198 l 397 198 l 397 595 l 794 595 m 794 1190 l 794 1389 l 198 1389 l 198 1190 l 0 1190 l 0 198 l 198 198 l 198 0 l 794 0 l 794 198 l 992 198 l 992 595 l 794 595 l 794 794 l 397 794 l 397 1190 l 794 1190 l 794 992 l 992 992 l 992 1190 l 794 1190 "},"7":{"ha":1190,"x_min":0,"x_max":992,"o":"m 198 595 l 198 0 l 595 0 l 595 794 l 992 794 l 992 1389 l 0 1389 l 0 992 l 397 992 l 397 1190 l 794 1190 l 794 992 l 595 992 l 595 794 l 397 794 l 397 595 l 198 595 "},"8":{"ha":1190,"x_min":0,"x_max":992,"o":"m 794 794 l 397 794 l 397 1190 l 794 1190 l 794 794 m 794 198 l 397 198 l 397 595 l 794 595 l 794 198 m 794 595 l 794 794 l 992 794 l 992 1190 l 794 1190 l 794 1389 l 198 1389 l 198 1190 l 0 1190 l 0 794 l 198 794 l 198 595 l 0 595 l 0 198 l 198 198 l 198 0 l 794 0 l 794 198 l 992 198 l 992 595 l 794 595 "},"9":{"ha":1190,"x_min":0,"x_max":992,"o":"m 397 794 l 397 1190 l 794 1190 l 794 794 l 397 794 m 397 397 l 0 397 l 0 198 l 198 198 l 198 0 l 794 0 l 794 198 l 992 198 l 992 1190 l 794 1190 l 794 1389 l 198 1389 l 198 1190 l 0 1190 l 0 794 l 198 794 l 198 595 l 794 595 l 794 198 l 397 198 l 397 397 "}," ":{"ha":794,"x_min":0,"x_max":0,"o":""},"!":{"ha":595,"x_min":0,"x_max":397,"o":"m 0 1389 l 0 595 l 397 595 l 397 1389 l 0 1389 m 0 397 l 0 0 l 397 0 l 397 397 l 0 397 "},"\"":{"ha":794,"x_min":0,"x_max":595,"o":"m 0 1389 l 0 992 l 198 992 l 198 1389 l 0 1389 m 397 1389 l 397 992 l 595 992 l 595 1389 l 397 1389 "},"#":{"ha":1389,"x_min":0,"x_max":1190,"o":"m 794 595 l 595 595 l 595 794 l 794 794 l 794 595 m 992 397 l 1190 397 l 1190 595 l 992 595 l 992 794 l 1190 794 l 1190 992 l 992 992 l 992 1389 l 794 1389 l 794 992 l 595 992 l 595 1389 l 198 1389 l 198 992 l 0 992 l 0 794 l 198 794 l 198 595 l 0 595 l 0 397 l 198 397 l 198 0 l 595 0 l 595 397 l 794 397 l 794 0 l 992 0 l 992 397 "},"(":{"ha":794,"x_min":0,"x_max":595,"o":"m 397 198 l 397 397 l 198 397 l 198 992 l 397 992 l 397 1190 l 595 1190 l 595 1389 l 397 1389 l 397 1190 l 198 1190 l 198 992 l 0 992 l 0 397 l 198 397 l 198 198 l 397 198 l 397 0 l 595 0 l 595 198 l 397 198 "},")":{"ha":794,"x_min":0,"x_max":595,"o":"m 397 992 l 397 1190 l 198 1190 l 198 1389 l 0 1389 l 0 1190 l 198 1190 l 198 992 l 397 992 l 397 397 l 198 397 l 198 198 l 0 198 l 0 0 l 198 0 l 198 198 l 397 198 l 397 397 l 595 397 l 595 992 l 397 992 "},"*":{"ha":1190,"x_min":0,"x_max":992,"o":"m 794 397 l 794 595 l 992 595 l 992 794 l 794 794 l 794 992 l 992 992 l 992 1190 l 794 1190 l 794 992 l 595 992 l 595 1389 l 397 1389 l 397 992 l 198 992 l 198 1190 l 0 1190 l 0 992 l 198 992 l 198 794 l 0 794 l 0 595 l 198 595 l 198 397 l 0 397 l 0 198 l 198 198 l 198 397 l 397 397 l 397 0 l 595 0 l 595 397 l 794 397 l 794 198 l 992 198 l 992 397 l 794 397 "},"+":{"ha":1190,"x_min":0,"x_max":992,"o":"m 397 595 l 397 794 l 0 794 l 0 595 l 397 595 m 595 794 l 595 595 l 992 595 l 992 794 l 595 794 m 595 595 l 397 595 l 397 198 l 595 198 l 595 595 m 397 794 l 595 794 l 595 1190 l 397 1190 l 397 794 "},",":{"ha":595,"x_min":0,"x_max":397,"o":"m 397 397 l 0 397 l 0 198 l 198 198 l 198 0 l 397 0 l 397 397 "},"-":{"ha":1190,"x_min":0,"x_max":992,"o":"m 0 794 l 0 595 l 992 595 l 992 794 l 0 794 "},".":{"ha":397,"x_min":0,"x_max":198,"o":"m 0 198 l 0 0 l 198 0 l 198 198 l 0 198 "},"/":{"ha":1587,"x_min":0,"x_max":1389,"o":"m 1190 1389 l 1190 1190 l 992 1190 l 992 992 l 794 992 l 794 794 l 595 794 l 595 595 l 397 595 l 397 397 l 198 397 l 198 198 l 0 198 l 0 0 l 198 0 l 198 198 l 397 198 l 397 397 l 595 397 l 595 595 l 794 595 l 794 794 l 992 794 l 992 992 l 1190 992 l 1190 1190 l 1389 1190 l 1389 1389 l 1190 1389 "},":":{"ha":397,"x_min":0,"x_max":198,"o":"m 0 992 l 0 794 l 198 794 l 198 992 l 0 992 m 0 595 l 0 397 l 198 397 l 198 595 l 0 595 "},";":{"ha":595,"x_min":0,"x_max":397,"o":"m 0 1190 l 0 794 l 397 794 l 397 1190 l 0 1190 m 397 0 l 397 595 l 0 595 l 0 198 l 198 198 l 198 0 l 397 0 "},"<":{"ha":992,"x_min":0,"x_max":794,"o":"m 595 198 l 595 397 l 397 397 l 397 595 l 198 595 l 198 794 l 397 794 l 397 992 l 595 992 l 595 1190 l 794 1190 l 794 1389 l 595 1389 l 595 1190 l 397 1190 l 397 992 l 198 992 l 198 794 l 0 794 l 0 595 l 198 595 l 198 397 l 397 397 l 397 198 l 595 198 l 595 0 l 794 0 l 794 198 l 595 198 "},"=":{"ha":1190,"x_min":0,"x_max":992,"o":"m 0 992 l 0 794 l 992 794 l 992 992 l 0 992 m 0 595 l 0 397 l 992 397 l 992 595 l 0 595 "},">":{"ha":992,"x_min":0,"x_max":794,"o":"m 0 198 l 0 0 l 198 0 l 198 198 l 397 198 l 397 397 l 595 397 l 595 595 l 794 595 l 794 794 l 595 794 l 595 992 l 397 992 l 397 1190 l 198 1190 l 198 1389 l 0 1389 l 0 1190 l 198 1190 l 198 992 l 397 992 l 397 794 l 595 794 l 595 595 l 397 595 l 397 397 l 198 397 l 198 198 l 0 198 "},"?":{"ha":1190,"x_min":0,"x_max":992,"o":"m 794 794 l 992 794 l 992 1190 l 794 1190 l 794 1389 l 198 1389 l 198 1190 l 0 1190 l 0 992 l 198 992 l 198 1190 l 595 1190 l 595 794 l 397 794 l 397 397 l 794 397 l 794 794 m 794 198 l 397 198 l 397 0 l 794 0 l 794 198 "},"@":{"ha":1190,"x_min":0,"x_max":992,"o":"m 794 198 l 992 198 l 992 1190 l 794 1190 l 794 1389 l 198 1389 l 198 1190 l 0 1190 l 0 198 l 198 198 l 198 0 l 794 0 l 794 198 m 397 794 l 397 1190 l 794 1190 l 794 794 l 397 794 m 595 595 l 794 595 l 794 198 l 595 198 l 595 595 "},"A":{"ha":1190,"x_min":0,"x_max":992,"o":"m 794 595 l 794 0 l 992 0 l 992 1190 l 794 1190 l 794 1389 l 0 1389 l 0 0 l 397 0 l 397 595 l 794 595 m 397 794 l 397 1190 l 794 1190 l 794 794 l 397 794 "},"B":{"ha":1190,"x_min":0,"x_max":992,"o":"m 794 595 l 794 198 l 397 198 l 397 595 l 794 595 m 794 794 l 992 794 l 992 1190 l 794 1190 l 794 1389 l 0 1389 l 0 0 l 794 0 l 794 198 l 992 198 l 992 595 l 794 595 l 794 794 m 397 794 l 397 1190 l 794 1190 l 794 794 l 397 794 "},"C":{"ha":1190,"x_min":0,"x_max":992,"o":"m 794 397 l 794 198 l 397 198 l 397 1190 l 794 1190 l 794 992 l 992 992 l 992 1190 l 794 1190 l 794 1389 l 198 1389 l 198 1190 l 0 1190 l 0 198 l 198 198 l 198 0 l 794 0 l 794 198 l 992 198 l 992 397 l 794 397 "},"D":{"ha":1190,"x_min":0,"x_max":992,"o":"m 794 198 l 992 198 l 992 1190 l 794 1190 l 794 1389 l 0 1389 l 0 0 l 794 0 l 794 198 m 397 198 l 397 1190 l 794 1190 l 794 198 l 397 198 "},"E":{"ha":1190,"x_min":0,"x_max":992,"o":"m 397 794 l 397 1190 l 992 1190 l 992 1389 l 198 1389 l 198 1190 l 0 1190 l 0 198 l 198 198 l 198 0 l 992 0 l 992 198 l 397 198 l 397 595 l 992 595 l 992 794 l 397 794 "},"F":{"ha":1190,"x_min":0,"x_max":992,"o":"m 397 794 l 397 1190 l 992 1190 l 992 1389 l 198 1389 l 198 1190 l 0 1190 l 0 0 l 397 0 l 397 595 l 992 595 l 992 794 l 397 794 "},"G":{"ha":1190,"x_min":0,"x_max":992,"o":"m 595 794 l 595 595 l 794 595 l 794 198 l 397 198 l 397 1190 l 794 1190 l 794 992 l 992 992 l 992 1190 l 794 1190 l 794 1389 l 198 1389 l 198 1190 l 0 1190 l 0 198 l 198 198 l 198 0 l 794 0 l 794 198 l 992 198 l 992 794 l 595 794 "},"H":{"ha":1190,"x_min":0,"x_max":992,"o":"m 397 794 l 397 1389 l 0 1389 l 0 0 l 397 0 l 397 595 l 794 595 l 794 0 l 992 0 l 992 1389 l 794 1389 l 794 794 l 397 794 "},"I":{"ha":595,"x_min":0,"x_max":397,"o":"m 0 1389 l 0 0 l 397 0 l 397 1389 l 0 1389 "},"J":{"ha":1190,"x_min":0,"x_max":992,"o":"m 198 1389 l 198 1190 l 595 1190 l 595 198 l 397 198 l 397 397 l 0 397 l 0 198 l 198 198 l 198 0 l 794 0 l 794 198 l 992 198 l 992 1389 l 198 1389 "},"K":{"ha":1190,"x_min":0,"x_max":992,"o":"m 794 595 l 794 794 l 992 794 l 992 1389 l 794 1389 l 794 794 l 397 794 l 397 1389 l 0 1389 l 0 0 l 397 0 l 397 595 l 794 595 l 794 0 l 992 0 l 992 595 l 794 595 "},"L":{"ha":1190,"x_min":0,"x_max":992,"o":"m 397 198 l 397 1389 l 0 1389 l 0 0 l 992 0 l 992 198 l 397 198 "},"M":{"ha":1389,"x_min":0,"x_max":1190,"o":"m 992 1389 l 992 992 l 794 992 l 794 794 l 595 794 l 595 992 l 397 992 l 397 1389 l 0 1389 l 0 0 l 397 0 l 397 794 l 595 794 l 595 595 l 794 595 l 794 794 l 992 794 l 992 0 l 1190 0 l 1190 1389 l 992 1389 "},"N":{"ha":1190,"x_min":0,"x_max":992,"o":"m 794 1389 l 794 794 l 595 794 l 595 992 l 397 992 l 397 1389 l 0 1389 l 0 0 l 397 0 l 397 794 l 595 794 l 595 595 l 794 595 l 794 0 l 992 0 l 992 1389 l 794 1389 "},"O":{"ha":1190,"x_min":0,"x_max":992,"o":"m 794 198 l 992 198 l 992 1190 l 794 1190 l 794 1389 l 198 1389 l 198 1190 l 0 1190 l 0 198 l 198 198 l 198 0 l 794 0 l 794 198 m 397 198 l 397 1190 l 794 1190 l 794 198 l 397 198 "},"P":{"ha":1190,"x_min":0,"x_max":992,"o":"m 794 794 l 992 794 l 992 1190 l 794 1190 l 794 1389 l 0 1389 l 0 0 l 397 0 l 397 595 l 794 595 l 794 794 m 397 794 l 397 1190 l 794 1190 l 794 794 l 397 794 "},"Q":{"ha":1190,"x_min":0,"x_max":992,"o":"m 992 0 l 992 1190 l 794 1190 l 794 1389 l 198 1389 l 198 1190 l 0 1190 l 0 198 l 198 198 l 198 0 l 992 0 m 595 397 l 595 198 l 397 198 l 397 1190 l 794 1190 l 794 397 l 595 397 "},"R":{"ha":1190,"x_min":0,"x_max":992,"o":"m 397 794 l 397 1190 l 794 1190 l 794 794 l 397 794 m 794 595 l 794 794 l 992 794 l 992 1190 l 794 1190 l 794 1389 l 0 1389 l 0 0 l 397 0 l 397 595 l 794 595 l 794 0 l 992 0 l 992 595 l 794 595 "},"S":{"ha":1190,"x_min":0,"x_max":992,"o":"m 0 397 l 0 198 l 198 198 l 198 0 l 794 0 l 794 198 l 992 198 l 992 595 l 794 595 l 794 794 l 397 794 l 397 1190 l 794 1190 l 794 992 l 992 992 l 992 1190 l 794 1190 l 794 1389 l 198 1389 l 198 1190 l 0 1190 l 0 794 l 198 794 l 198 595 l 794 595 l 794 198 l 397 198 l 397 397 l 0 397 "},"T":{"ha":992,"x_min":0,"x_max":794,"o":"m 595 1190 l 794 1190 l 794 1389 l 0 1389 l 0 1190 l 198 1190 l 198 0 l 595 0 l 595 1190 "},"U":{"ha":1190,"x_min":0,"x_max":992,"o":"m 794 1389 l 794 198 l 397 198 l 397 1389 l 0 1389 l 0 198 l 198 198 l 198 0 l 794 0 l 794 198 l 992 198 l 992 1389 l 794 1389 "},"V":{"ha":1190,"x_min":0,"x_max":992,"o":"m 794 1389 l 794 595 l 595 595 l 595 397 l 397 397 l 397 1389 l 0 1389 l 0 0 l 397 0 l 397 198 l 595 198 l 595 397 l 794 397 l 794 595 l 992 595 l 992 1389 l 794 1389 "},"W":{"ha":1389,"x_min":0,"x_max":1190,"o":"m 992 1389 l 992 595 l 794 595 l 794 794 l 595 794 l 595 595 l 397 595 l 397 1389 l 0 1389 l 0 0 l 397 0 l 397 397 l 595 397 l 595 595 l 794 595 l 794 397 l 992 397 l 992 0 l 1190 0 l 1190 1389 l 992 1389 "},"X":{"ha":1190,"x_min":0,"x_max":992,"o":"m 794 198 l 794 397 l 595 397 l 595 992 l 794 992 l 794 1190 l 992 1190 l 992 1389 l 794 1389 l 794 1190 l 595 1190 l 595 992 l 397 992 l 397 1190 l 198 1190 l 198 1389 l 0 1389 l 0 992 l 198 992 l 198 397 l 0 397 l 0 0 l 198 0 l 198 198 l 397 198 l 397 397 l 595 397 l 595 198 l 794 198 l 794 0 l 992 0 l 992 198 l 794 198 "},"Y":{"ha":1190,"x_min":0,"x_max":992,"o":"m 0 397 l 0 198 l 198 198 l 198 0 l 794 0 l 794 198 l 992 198 l 992 1389 l 794 1389 l 794 794 l 397 794 l 397 1389 l 0 1389 l 0 794 l 198 794 l 198 595 l 794 595 l 794 198 l 397 198 l 397 397 l 0 397 "},"Z":{"ha":1190,"x_min":0,"x_max":992,"o":"m 794 397 l 794 198 l 397 198 l 397 397 l 595 397 l 595 794 l 794 794 l 794 992 l 992 992 l 992 1389 l 0 1389 l 0 992 l 198 992 l 198 1190 l 595 1190 l 595 992 l 397 992 l 397 794 l 198 794 l 198 397 l 0 397 l 0 0 l 992 0 l 992 397 l 794 397 "},"[":{"ha":794,"x_min":0,"x_max":595,"o":"m 397 198 l 397 1190 l 595 1190 l 595 1389 l 0 1389 l 0 0 l 595 0 l 595 198 l 397 198 "},"]":{"ha":794,"x_min":0,"x_max":595,"o":"m 0 198 l 0 0 l 595 0 l 595 1389 l 0 1389 l 0 1190 l 198 1190 l 198 198 l 0 198 "},"^":{"ha":794,"x_min":0,"x_max":595,"o":"m 397 1190 l 397 1389 l 198 1389 l 198 1190 l 0 1190 l 0 992 l 198 992 l 198 1190 l 397 1190 l 397 992 l 595 992 l 595 1190 l 397 1190 "},"_":{"ha":1190,"x_min":0,"x_max":992,"o":"m 0 198 l 0 0 l 992 0 l 992 198 l 0 198 "},"a":{"ha":1190,"x_min":0,"x_max":992,"o":"m 794 595 l 794 0 l 992 0 l 992 1190 l 794 1190 l 794 1389 l 0 1389 l 0 0 l 397 0 l 397 595 l 794 595 m 397 794 l 397 1190 l 794 1190 l 794 794 l 397 794 "},"b":{"ha":1190,"x_min":0,"x_max":992,"o":"m 794 595 l 794 198 l 397 198 l 397 595 l 794 595 m 794 794 l 992 794 l 992 1190 l 794 1190 l 794 1389 l 0 1389 l 0 0 l 794 0 l 794 198 l 992 198 l 992 595 l 794 595 l 794 794 m 397 794 l 397 1190 l 794 1190 l 794 794 l 397 794 "},"c":{"ha":1190,"x_min":0,"x_max":992,"o":"m 794 397 l 794 198 l 397 198 l 397 1190 l 794 1190 l 794 992 l 992 992 l 992 1190 l 794 1190 l 794 1389 l 198 1389 l 198 1190 l 0 1190 l 0 198 l 198 198 l 198 0 l 794 0 l 794 198 l 992 198 l 992 397 l 794 397 "},"d":{"ha":1190,"x_min":0,"x_max":992,"o":"m 794 198 l 992 198 l 992 1190 l 794 1190 l 794 1389 l 0 1389 l 0 0 l 794 0 l 794 198 m 397 198 l 397 1190 l 794 1190 l 794 198 l 397 198 "},"e":{"ha":1190,"x_min":0,"x_max":992,"o":"m 397 794 l 397 1190 l 992 1190 l 992 1389 l 198 1389 l 198 1190 l 0 1190 l 0 198 l 198 198 l 198 0 l 992 0 l 992 198 l 397 198 l 397 595 l 992 595 l 992 794 l 397 794 "},"f":{"ha":1190,"x_min":0,"x_max":992,"o":"m 397 794 l 397 1190 l 992 1190 l 992 1389 l 198 1389 l 198 1190 l 0 1190 l 0 0 l 397 0 l 397 595 l 992 595 l 992 794 l 397 794 "},"g":{"ha":1190,"x_min":0,"x_max":992,"o":"m 595 794 l 595 595 l 794 595 l 794 198 l 397 198 l 397 1190 l 794 1190 l 794 992 l 992 992 l 992 1190 l 794 1190 l 794 1389 l 198 1389 l 198 1190 l 0 1190 l 0 198 l 198 198 l 198 0 l 794 0 l 794 198 l 992 198 l 992 794 l 595 794 "},"h":{"ha":1190,"x_min":0,"x_max":992,"o":"m 397 794 l 397 1389 l 0 1389 l 0 0 l 397 0 l 397 595 l 794 595 l 794 0 l 992 0 l 992 1389 l 794 1389 l 794 794 l 397 794 "},"i":{"ha":595,"x_min":0,"x_max":397,"o":"m 0 1389 l 0 0 l 397 0 l 397 1389 l 0 1389 "},"j":{"ha":1190,"x_min":0,"x_max":992,"o":"m 198 1389 l 198 1190 l 595 1190 l 595 198 l 397 198 l 397 397 l 0 397 l 0 198 l 198 198 l 198 0 l 794 0 l 794 198 l 992 198 l 992 1389 l 198 1389 "},"k":{"ha":1190,"x_min":0,"x_max":992,"o":"m 794 595 l 794 794 l 992 794 l 992 1389 l 794 1389 l 794 794 l 397 794 l 397 1389 l 0 1389 l 0 0 l 397 0 l 397 595 l 794 595 l 794 0 l 992 0 l 992 595 l 794 595 "},"l":{"ha":1190,"x_min":0,"x_max":992,"o":"m 397 198 l 397 1389 l 0 1389 l 0 0 l 992 0 l 992 198 l 397 198 "},"m":{"ha":1389,"x_min":0,"x_max":1190,"o":"m 992 1389 l 992 992 l 794 992 l 794 794 l 595 794 l 595 992 l 397 992 l 397 1389 l 0 1389 l 0 0 l 397 0 l 397 794 l 595 794 l 595 595 l 794 595 l 794 794 l 992 794 l 992 0 l 1190 0 l 1190 1389 l 992 1389 "},"n":{"ha":1190,"x_min":0,"x_max":992,"o":"m 794 1389 l 794 794 l 595 794 l 595 992 l 397 992 l 397 1389 l 0 1389 l 0 0 l 397 0 l 397 794 l 595 794 l 595 595 l 794 595 l 794 0 l 992 0 l 992 1389 l 794 1389 "},"o":{"ha":1190,"x_min":0,"x_max":992,"o":"m 794 198 l 992 198 l 992 1190 l 794 1190 l 794 1389 l 198 1389 l 198 1190 l 0 1190 l 0 198 l 198 198 l 198 0 l 794 0 l 794 198 m 397 198 l 397 1190 l 794 1190 l 794 198 l 397 198 "},"p":{"ha":1190,"x_min":0,"x_max":992,"o":"m 794 794 l 992 794 l 992 1190 l 794 1190 l 794 1389 l 0 1389 l 0 0 l 397 0 l 397 595 l 794 595 l 794 794 m 397 794 l 397 1190 l 794 1190 l 794 794 l 397 794 "},"q":{"ha":1190,"x_min":0,"x_max":992,"o":"m 992 0 l 992 1190 l 794 1190 l 794 1389 l 198 1389 l 198 1190 l 0 1190 l 0 198 l 198 198 l 198 0 l 992 0 m 595 397 l 595 198 l 397 198 l 397 1190 l 794 1190 l 794 397 l 595 397 "},"r":{"ha":1190,"x_min":0,"x_max":992,"o":"m 397 794 l 397 1190 l 794 1190 l 794 794 l 397 794 m 794 595 l 794 794 l 992 794 l 992 1190 l 794 1190 l 794 1389 l 0 1389 l 0 0 l 397 0 l 397 595 l 794 595 l 794 0 l 992 0 l 992 595 l 794 595 "},"s":{"ha":1190,"x_min":0,"x_max":992,"o":"m 0 397 l 0 198 l 198 198 l 198 0 l 794 0 l 794 198 l 992 198 l 992 595 l 794 595 l 794 794 l 397 794 l 397 1190 l 794 1190 l 794 992 l 992 992 l 992 1190 l 794 1190 l 794 1389 l 198 1389 l 198 1190 l 0 1190 l 0 794 l 198 794 l 198 595 l 794 595 l 794 198 l 397 198 l 397 397 l 0 397 "},"t":{"ha":992,"x_min":0,"x_max":794,"o":"m 595 1190 l 794 1190 l 794 1389 l 0 1389 l 0 1190 l 198 1190 l 198 0 l 595 0 l 595 1190 "},"u":{"ha":1190,"x_min":0,"x_max":992,"o":"m 794 1389 l 794 198 l 397 198 l 397 1389 l 0 1389 l 0 198 l 198 198 l 198 0 l 794 0 l 794 198 l 992 198 l 992 1389 l 794 1389 "},"v":{"ha":1190,"x_min":0,"x_max":992,"o":"m 794 1389 l 794 595 l 595 595 l 595 397 l 397 397 l 397 1389 l 0 1389 l 0 0 l 397 0 l 397 198 l 595 198 l 595 397 l 794 397 l 794 595 l 992 595 l 992 1389 l 794 1389 "},"w":{"ha":1389,"x_min":0,"x_max":1190,"o":"m 992 1389 l 992 595 l 794 595 l 794 794 l 595 794 l 595 595 l 397 595 l 397 1389 l 0 1389 l 0 0 l 397 0 l 397 397 l 595 397 l 595 595 l 794 595 l 794 397 l 992 397 l 992 0 l 1190 0 l 1190 1389 l 992 1389 "},"x":{"ha":1190,"x_min":0,"x_max":992,"o":"m 794 198 l 794 397 l 595 397 l 595 992 l 794 992 l 794 1190 l 992 1190 l 992 1389 l 794 1389 l 794 1190 l 595 1190 l 595 992 l 397 992 l 397 1190 l 198 1190 l 198 1389 l 0 1389 l 0 992 l 198 992 l 198 397 l 0 397 l 0 0 l 198 0 l 198 198 l 397 198 l 397 397 l 595 397 l 595 198 l 794 198 l 794 0 l 992 0 l 992 198 l 794 198 "},"y":{"ha":1190,"x_min":0,"x_max":992,"o":"m 0 397 l 0 198 l 198 198 l 198 0 l 794 0 l 794 198 l 992 198 l 992 1389 l 794 1389 l 794 794 l 397 794 l 397 1389 l 0 1389 l 0 794 l 198 794 l 198 595 l 794 595 l 794 198 l 397 198 l 397 397 l 0 397 "},"z":{"ha":1190,"x_min":0,"x_max":992,"o":"m 794 397 l 794 198 l 397 198 l 397 397 l 595 397 l 595 794 l 794 794 l 794 992 l 992 992 l 992 1389 l 0 1389 l 0 992 l 198 992 l 198 1190 l 595 1190 l 595 992 l 397 992 l 397 794 l 198 794 l 198 397 l 0 397 l 0 0 l 992 0 l 992 397 l 794 397 "},"|":{"ha":397,"x_min":0,"x_max":198,"o":"m 0 1389 l 0 0 l 198 0 l 198 1389 l 0 1389 "},"~":{"ha":1190,"x_min":0,"x_max":992,"o":"m 794 1389 l 794 1190 l 595 1190 l 595 1389 l 198 1389 l 198 1190 l 0 1190 l 0 992 l 198 992 l 198 1190 l 397 1190 l 397 992 l 794 992 l 794 1190 l 992 1190 l 992 1389 l 794 1389 "}," ":{"ha":794,"x_min":0,"x_max":0,"o":""}}}
